<?xml version="1.0" encoding="UTF-8"?>
<svg xmlns="http://www.w3.org/2000/svg" version="1.1" viewBox="0 0 448 630">
  <defs>
    <style>
      .cls-1 {
        fill: #fff;
      }

      .cls-1, .cls-2 {
        fill-rule: evenodd;
      }

      .cls-2 {
        fill: #f9a83a;
      }
    </style>
  </defs>
  <!-- Generator: Adobe Illustrator 28.7.0, SVG Export Plug-In . SVG Version: 1.2.0 Build 136)  -->
  <g>
    <g id="_レイヤー_1" data-name="レイヤー_1">
      <g id="_レイヤー_1-2" data-name="_レイヤー_1">
        <g id="Master-1024x1024">
          <path id="scratch-orange-outline" class="cls-2" d="M416.5,398.9c.7,51.1-22,101-62.1,136.7-34.2,30.5-77.8,47.4-122.6,47.4s-15.5-.5-23.2-1.6c-1.8,2.4-3.6,4.9-5.5,7-17.3,20.3-41.1,32.3-67.1,33.9-2,.1-3.9.3-5.9.3-50.8,0-93.5-41.2-97.2-93.9,0-1.1-.1-2.2-.1-3.2v-.8c-1.8-37.4-.9-68.2,0-87.5,1.2-22.3,1.9-60.1,2-68.3.4-25.7,9.9-48.9,25.3-66.6-7.7-27.4-10.1-60.4-5.4-99.3l.5-5.7c0-.4,0-.8.1-1.4,2.7-22.8,6.8-56.5,23.2-88.7,24.7-48.3,70-76.2,124.1-76.2s6.2,0,9.5.3c5.7.4,11.5,1.1,17.2,2.2,17.6-16.5,41.1-26.6,66.7-26.1,53.1.9,96.2,46.3,96.2,101.3s-4.7,147.7-7,160.4c-1.4,8-3.6,15.5-6.5,22.7,24.4,29.3,37.5,65.8,37.9,107"/>
          <path id="scratch-white-fill" class="cls-1" d="M204.9,294.3c-25.1-4.1-38.6-21.5-31.9-75.5l.8-6.5c5.5-47,10.3-57.4,32-56.2,6.3.4,13.6,4.6,21.1,10.8,6.8,8.1,21.9,18.8,30.4,39.7,6.1,15.4,8.2,25.4,9,36.2l1.4,13.2h0c1.8,9,8.5,16.5,17.7,18.1,11.9,2.3,23.4-5.9,25.5-18.4.3-1.5,5.7-143.8,5.7-146.1,0-12.6-9.7-22.7-21.9-23-12.2,0-22,10.1-22,22.7s0,19.9-.4,39.7c-17.3-19.6-39.4-37-64.2-38.5-66.3-3.6-73.6,59.6-77.9,96l-.7,6.5c-8.9,72.1,14.2,117.5,68.6,126.3,59.2,9.6,98.6,23.8,99,61.4.3,14.7-7.2,29.7-20.3,41.3-15.7,13.8-36.6,20-56.3,16.6-6.1-.9-11.9-2.7-17.4-4.6-7.7-4.5-27.3-16.7-37.1-31.1-8.4-12-11.2-30.8-12.2-42.8v-9.3c.3-12.6-9.6-22.8-21.5-23.1-12.2-.3-22.1,9.9-22.4,22.4,0,.4-.5,45-2.2,71.8-2.3,43.2,0,79.8,0,81.4.9,12.6,11.3,22,23.4,21.2,12-.7,21.3-11.5,20.4-24.2,0-.3-1.1-18-.9-42.5,16.1,10.7,37.3,21.1,62.4,25.4,32.8,5.7,66.3-4.2,92-27,23-20.4,36.1-48.2,35.8-76.4-.8-84.1-92.2-98.9-136.1-106"/>
        </g>
      </g>
    </g>
  </g>
</svg>