<?xml version="1.0" encoding="UTF-8"?>
<svg xmlns="http://www.w3.org/2000/svg" version="1.1" viewBox="0 0 448 630">
  <defs>
    <style>
      .cls-1 {
        fill: #fff;
      }

      .cls-1, .cls-2 {
        fill-rule: evenodd;
      }

      .cls-2 {
        fill: #f9a83a;
      }
    </style>
  </defs>
  <!-- Generator: Adobe Illustrator 28.7.0, SVG Export Plug-In . SVG Version: 1.2.0 Build 136)  -->
  <g>
    <g id="_レイヤー_1" data-name="レイヤー_1">
      <g id="Master-1024x1024">
        <path id="scratch-orange-outline" class="cls-2" d="M366.2,380.8c.5,37.8-16.3,74.8-46,101.2-25.3,22.6-57.6,35.1-90.8,35.1-5.7,0-11.5-.4-17.2-1.2-1.3,1.8-2.7,3.6-4.1,5.2-12.8,15-30.4,23.9-49.7,25.1-1.5.1-2.9.2-4.4.2-37.6,0-69.2-30.5-72-69.5,0-.8-.1-1.6-.1-2.4v-.6c-1.3-27.7-.7-50.5,0-64.8.9-16.5,1.4-44.5,1.5-50.6.3-19,7.3-36.2,18.7-49.3-5.7-20.3-7.5-44.7-4-73.5l.4-4.2c0-.3,0-.6.1-1,2-16.9,5-41.8,17.2-65.7,18.3-35.8,51.8-56.4,91.9-56.4s4.6,0,7,.2c4.2.3,8.5.8,12.7,1.6,13-12.2,30.4-19.7,49.4-19.3,39.3.7,71.2,34.3,71.2,75s-3.5,109.4-5.2,118.8c-1,5.9-2.7,11.5-4.8,16.8,18.1,21.7,27.8,48.7,28.1,79.2"/>
        <path id="scratch-white-fill" class="cls-1" d="M209.5,303.3c-18.6-3-28.6-15.9-23.6-55.9l.6-4.8c4.1-34.8,7.6-42.5,23.7-41.6,4.7.3,10.1,3.4,15.6,8,5,6,16.2,13.9,22.5,29.4,4.5,11.4,6.1,18.8,6.7,26.8l1,9.8h0c1.3,6.7,6.3,12.2,13.1,13.4,8.8,1.7,17.3-4.4,18.9-13.6.2-1.1,4.2-106.5,4.2-108.2,0-9.3-7.2-16.8-16.2-17-9,0-16.3,7.5-16.3,16.8s0,14.7-.3,29.4c-12.8-14.5-29.2-27.4-47.5-28.5-49.1-2.7-54.5,44.1-57.7,71.1l-.5,4.8c-6.6,53.4,10.5,87,50.8,93.5,43.8,7.1,73,17.6,73.3,45.5.2,10.9-5.3,22-15,30.6-11.6,10.2-27.1,14.8-41.7,12.3-4.5-.7-8.8-2-12.9-3.4-5.7-3.3-20.2-12.4-27.5-23-6.2-8.9-8.3-22.8-9-31.7,0-4,0-6.6,0-6.9.2-9.3-7.1-16.9-15.9-17.1-9-.2-16.4,7.3-16.6,16.6,0,.3-.4,33.3-1.6,53.2-1.7,32,0,59.1,0,60.3.7,9.3,8.4,16.3,17.3,15.7,8.9-.5,15.8-8.5,15.1-17.9,0-.2-.8-13.3-.7-31.5,11.9,7.9,27.6,15.6,46.2,18.8,24.3,4.2,49.1-3.1,68.1-20,17-15.1,26.7-35.7,26.5-56.6-.6-62.3-68.3-73.2-100.8-78.5"/>
      </g>
    </g>
  </g>
</svg>